<svg data-v-423bf9ae="" xmlns="http://www.w3.org/2000/svg" viewBox="0 0 461.33231747580635 167" class="iconAbove"><!----><!----><!----><g data-v-423bf9ae="" id="4cf42d8b-70f3-4c41-a0a5-8be044fc6d19" fill="#D84040" transform="matrix(4.702194690704346,0,0,4.702194690704346,-0.2821319103240967,89.95885467529297)"><path d="M7.26 3.82L0.06 3.82L0.06 5.09L2.93 5.09L2.93 13.15L4.42 13.15L4.42 5.09L7.26 5.09ZM10.22 13.34C12.31 13.34 13.75 11.81 13.75 9.84C13.75 7.89 12.31 6.36 10.22 6.36C8.11 6.36 6.66 7.89 6.66 9.84C6.66 11.81 8.11 13.34 10.22 13.34ZM10.22 12.13C9.00 12.13 8.14 11.14 8.14 9.84C8.14 8.56 9.00 7.57 10.22 7.57C11.43 7.57 12.29 8.56 12.29 9.84C12.29 11.14 11.43 12.13 10.22 12.13ZM18.77 6.36C17.78 6.36 17.02 6.77 16.49 7.42L16.38 6.53L15.14 6.53L15.14 16.22L16.55 16.22L16.55 12.32C17.06 12.94 17.81 13.31 18.77 13.31C20.49 13.31 21.86 12.00 21.86 9.84C21.86 7.69 20.49 6.36 18.77 6.36ZM18.43 12.12C17.19 12.12 16.39 11.14 16.39 9.84C16.39 8.55 17.19 7.55 18.43 7.55C19.63 7.55 20.42 8.55 20.42 9.84C20.42 11.14 19.63 12.12 18.43 12.12ZM24.11 5.26C24.62 5.26 25.03 4.86 25.03 4.36C25.03 3.86 24.62 3.46 24.11 3.46C23.60 3.46 23.19 3.86 23.19 4.36C23.19 4.86 23.60 5.26 24.11 5.26ZM23.42 13.15L24.81 13.15L24.81 6.53L23.42 6.53ZM29.85 13.34C30.77 13.34 31.51 13.07 32.13 12.60L31.31 11.58C30.95 11.93 30.44 12.13 29.88 12.13C28.58 12.13 27.81 11.14 27.81 9.84C27.81 8.55 28.58 7.57 29.88 7.57C30.44 7.57 30.95 7.77 31.31 8.12L32.13 7.10C31.51 6.64 30.77 6.36 29.85 6.36C27.80 6.36 26.37 7.89 26.37 9.84C26.37 11.81 27.80 13.34 29.85 13.34ZM41.42 8.06L41.42 9.23L43.81 9.23L43.81 11.62C43.40 11.86 42.70 12.05 41.68 12.05C39.48 12.03 38.21 10.43 38.21 8.46C38.21 6.45 39.55 4.93 41.71 4.91C42.89 4.91 43.79 5.45 44.10 5.63L44.81 4.43C44.03 3.97 42.96 3.59 41.68 3.59C38.53 3.59 36.66 5.78 36.66 8.46C36.66 11.13 38.51 13.34 41.66 13.34C43.40 13.34 44.73 12.82 45.25 12.41L45.25 8.06ZM53.02 9.70C53.02 7.73 51.70 6.36 49.77 6.36C47.77 6.36 46.36 7.89 46.36 9.84C46.36 11.80 47.76 13.31 49.93 13.31C51.09 13.31 52.05 12.92 52.65 12.25L51.67 11.46C51.25 11.94 50.68 12.19 49.92 12.19C48.68 12.19 47.95 11.33 47.85 10.15L53.02 10.15ZM49.77 7.50C50.81 7.50 51.48 8.12 51.63 9.17L47.91 9.17C48.11 8.17 48.80 7.50 49.77 7.50ZM57.87 6.36C56.93 6.36 56.22 6.74 55.83 7.32L55.65 6.53L54.41 6.53L54.41 13.15L55.83 13.15L55.83 9.11C55.94 7.95 56.73 7.57 57.47 7.57C58.49 7.57 58.93 8.30 58.93 9.38L58.93 13.15L60.35 13.15L60.35 9.06C60.35 7 59.02 6.36 57.87 6.36ZM68.32 9.70C68.32 7.73 67.00 6.36 65.07 6.36C63.07 6.36 61.66 7.89 61.66 9.84C61.66 11.80 63.06 13.31 65.23 13.31C66.38 13.31 67.35 12.92 67.94 12.25L66.97 11.46C66.54 11.94 65.97 12.19 65.22 12.19C63.98 12.19 63.25 11.33 63.15 10.15L68.32 10.15ZM65.07 7.50C66.11 7.50 66.78 8.12 66.92 9.17L63.20 9.17C63.41 8.17 64.09 7.50 65.07 7.50ZM72.80 6.36C72.01 6.36 71.49 6.74 71.11 7.41L70.93 6.53L69.71 6.53L69.71 13.15L71.12 13.15L71.12 9.70C71.12 8.62 71.69 7.66 72.73 7.66C72.96 7.66 73.18 7.70 73.37 7.79L73.79 6.58C73.62 6.47 73.24 6.36 72.80 6.36ZM76.30 13.34C77.23 13.34 78.11 12.94 78.56 12.31L78.78 13.15L79.97 13.15L79.97 9.19C79.97 7.31 79.00 6.36 77.04 6.36C76.07 6.36 75.25 6.61 74.62 7.10L75.25 8.08C75.69 7.70 76.26 7.51 76.90 7.51C77.95 7.51 78.56 8.01 78.56 8.90L78.56 9.45L78.39 9.39C75.51 8.31 73.94 9.79 73.94 11.21C73.94 12.45 74.99 13.34 76.30 13.34ZM76.72 12.25C75.89 12.25 75.42 11.72 75.42 11.11C75.42 10.34 76.31 9.57 78.37 10.30L78.56 10.35L78.56 10.54C78.56 11.62 77.69 12.25 76.72 12.25ZM84.73 11.93C84.64 11.99 84.41 12.06 84.13 12.06C83.68 12.06 83.40 11.80 83.40 11.20L83.40 7.67L84.80 7.67L84.80 6.53L83.40 6.53L83.40 4.64L81.99 4.64L81.99 6.53L81.11 6.53L81.11 7.67L81.99 7.67L81.99 11.32C81.99 12.91 82.98 13.27 83.80 13.27C84.32 13.27 84.74 13.17 84.92 13.08ZM89.18 13.34C91.26 13.34 92.71 11.81 92.71 9.84C92.71 7.89 91.26 6.36 89.18 6.36C87.06 6.36 85.62 7.89 85.62 9.84C85.62 11.81 87.06 13.34 89.18 13.34ZM89.18 12.13C87.95 12.13 87.09 11.14 87.09 9.84C87.09 8.56 87.95 7.57 89.18 7.57C90.39 7.57 91.25 8.56 91.25 9.84C91.25 11.14 90.39 12.13 89.18 12.13ZM97.18 6.36C96.40 6.36 95.87 6.74 95.49 7.41L95.32 6.53L94.09 6.53L94.09 13.15L95.51 13.15L95.51 9.70C95.51 8.62 96.08 7.66 97.11 7.66C97.34 7.66 97.56 7.70 97.75 7.79L98.17 6.58C98 6.47 97.62 6.36 97.18 6.36Z"></path></g><!----><g data-v-423bf9ae="" id="ad84b68c-5974-4e2e-b0f9-99690b684ed7" transform="matrix(1.0177778005599976,0,0,1.0177778005599976,180.11111450195312,-3.6888930797576904)" stroke="none" fill="#D84040"><path d="M50 95.8H10c.2-16.6-.5-25.5 10.3-29.4 9.8-3.7 15.6-7.6 15.6-7.6l7.5 23.8 1 3.2 3.4-9.6C40.2 65.5 48.5 65 50 65c1.4 0 9.8.5 2 11.3l3.4 9.6 1-3.2L64 58.9s5.9 3.8 15.6 7.6C90.4 70.3 89.7 79.2 90 95.8H50zM31.7 11.7c10-10 26.2-10 36.1 0 10 10 10 26.2 0 36.1-8.4 8.4-21.2 9.7-31 4h-.1c-3.9 2.9-8 3.4-10.9 3-1-.1-1.2-1.4-.3-1.9 2.6-1.3 4.3-3.9 5.3-5.9l-.3-.2c-8.8-10.2-8.4-25.5 1.2-35.1zm25.7 18c0 1.8 1.5 3.3 3.3 3.3 1.8 0 3.3-1.5 3.3-3.3 0-1.8-1.5-3.3-3.3-3.3-1.8 0-3.3 1.5-3.3 3.3zm-11 0c0 1.8 1.5 3.3 3.3 3.3 1.8 0 3.3-1.5 3.3-3.3 0-1.8-1.5-3.3-3.3-3.3-1.8 0-3.3 1.5-3.3 3.3zm-11 0c0 1.8 1.5 3.3 3.3 3.3 1.8 0 3.3-1.5 3.3-3.3 0-1.8-1.5-3.3-3.3-3.3-1.8 0-3.3 1.5-3.3 3.3z"></path></g><!----></svg>